<?xml version="1.0" encoding="UTF-8"?>
<!-- Created with Inkscape (http://www.inkscape.org/) -->
<svg width="100mm" height="100mm" version="1.1" viewBox="0 0 100 100" xmlns="http://www.w3.org/2000/svg" xmlns:cc="http://creativecommons.org/ns#" xmlns:dc="http://purl.org/dc/elements/1.1/" xmlns:rdf="http://www.w3.org/1999/02/22-rdf-syntax-ns#">
 <g transform="translate(0,-197)" fill="white">
  <path d="m12.596 290.02c0.59689-6.0778 3.5752-11.703 8.2284-15.541 0.97244-0.80212 1.836-1.4584 1.9191-1.4584 0.083 0 0.36911 0.62508 0.6357 1.3891 1.3635 3.9077 4.7134 7.019 8.6419 8.0266 5.808 1.4896 12.412-2.1805 14.202-7.892 0.26178-0.83551 0.56062-1.5201 0.6641-1.5214 0.32411-4e-3 3.2043 2.3834 4.2605 3.5312 3.4457 3.7451 6.0024 9.7298 6.0024 14.05v1.2018h-44.729zm20.08-11.427c-3.4727-0.84919-6.0933-3.986-6.4016-7.6628-0.3657-4.3621 2.2931-8.089 6.5485-9.1791 6.2089-1.5907 12.052 4.2487 10.462 10.455-1.207 4.7112-5.9024 7.5378-10.609 6.3868zm-9.7422-29.187c-1.5747-6.5846-2.9185-12.169-2.9862-12.409-0.10676-0.37902 0.0104-0.40632 0.87869-0.20475 3.7097 0.86124 7.9486-0.49415 10.969-3.5072l1.5069-1.5035 0.53941 2.2972c0.29667 1.2635 1.7285 7.2334 3.1818 13.266 1.4533 6.0331 2.612 11 2.575 11.037-0.0371 0.0371-0.6572-0.11325-1.378-0.3341-0.72081-0.22085-2.2342-0.40447-3.3631-0.40806-2.7342-9e-3 -5.0258 0.76491-7.2477 2.4467-0.93937 0.71101-1.7314 1.2926-1.7601 1.2924-0.0287-1.9e-4 -1.3405-5.3878-2.9152-11.972zm55.291-1.1308c-2.305-2.7195-4.0905-5.0303-3.9677-5.1353 0.29267-0.25021 12.035-2.9782 12.183-2.8303 0.0625 0.0625-0.81739 2.9928-1.9553 6.5119l-2.0689 6.3982zm-9.5647-15.872c-2.0369-4.5794-3.7404-8.4368-3.7854-8.572-0.0451-0.13518 0.15203-0.18459 0.43798-0.10982 0.94382 0.24682 4.0272-0.40118 5.754-1.2092 1.9376-0.9067 4.3337-3.0426 5.3405-4.7607l0.68539-1.1695 0.35719 0.76896c1.9629 4.2257 9.0033 20.102 8.942 20.165-0.11646 0.11873-13.366 3.227-13.725 3.2198-0.16676-3e-3 -1.9698-3.7529-4.0067-8.3324zm-48.376 0.25615c-2.4157-0.88605-4.671-3.2681-5.4694-5.7769-0.48707-1.5304-0.22105-4.7958 0.50585-6.2093 3.8917-7.5676 14.836-6.0577 16.415 2.2646 0.74646 3.9361-1.6612 8.1767-5.4465 9.593-1.6922 0.63314-4.4669 0.69255-6.0045 0.12857zm15.085-7.3859c0.19499-2.088-0.64746-5.5301-1.8345-7.4953-0.47225-0.78186-1.4904-2.0202-2.2627-2.7519-0.77221-0.73168-1.3675-1.3554-1.3229-1.386 0.14043-0.0963 24.414-7.2962 24.595-7.2953 0.0949 5.3e-4 -3e-3 0.56643-0.2182 1.2576-0.27633 0.88876-0.3604 2.0749-0.28712 4.0508 0.0914 2.4639 0.20293 3.0063 0.94394 4.5898 0.46217 0.98764 1.2127 2.2659 1.6678 2.8405 0.45513 0.57466 0.78339 1.0848 0.72947 1.1337-0.0539 0.0489-5.0625 1.5704-11.13 3.3812l-11.032 3.2922zm28.345-5.8065c-2.3303-0.67254-4.295-2.3364-5.5601-4.7087-0.50918-0.95476-0.60616-1.5382-0.60678-3.6499-5.3e-4 -2.1578 0.0926-2.6962 0.65838-3.8041 0.91273-1.7872 2.4264-3.2644 4.1946-4.0933 2.0868-0.97835 5.3623-1.0003 7.3103-0.049 6.8803 3.3601 6.5917 13.076-0.47587 16.016-1.4045 0.58423-4.023 0.72143-5.5204 0.28926z" style="stroke-width:.26458"/>
 </g>
</svg>
